<svg width="69" height="60" viewBox="0 0 69 60" fill="none" xmlns="http://www.w3.org/2000/svg">
<path d="M51.9958 58.762C61.5375 56.2606 65.7868 51.033 67.62 46.8844C68.2069 45.5517 68.4692 44.0987 68.3855 42.6448C68.3017 41.191 67.8743 39.7777 67.1382 38.5212C67.1228 38.4852 67.1049 38.4503 67.0846 38.4168C66.734 37.8415 66.32 37.3074 65.8502 36.8245C65.9412 36.821 66.0331 36.8191 66.1262 36.821C66.2359 36.8233 66.3449 36.8039 66.4471 36.7641C66.5492 36.7242 66.6426 36.6647 66.7217 36.5887C66.8009 36.5128 66.8643 36.4221 66.9084 36.3216C66.9525 36.2212 66.9763 36.1131 66.9786 36.0034C66.9809 35.8938 66.9616 35.7847 66.9217 35.6826C66.8819 35.5804 66.8223 35.487 66.7464 35.4079C66.6705 35.3287 66.5797 35.2653 66.4793 35.2212C66.3788 35.1772 66.2707 35.1533 66.1611 35.151C65.4792 35.1445 64.7995 35.2298 64.1404 35.4046C64.0569 35.3453 63.9721 35.2861 63.8859 35.2278C63.3893 34.8888 62.8767 34.5737 62.3481 34.2824C62.7756 34.1888 63.213 34.1479 63.6505 34.1605C63.8613 34.1718 64.069 34.1055 64.2343 33.9743C64.3997 33.843 64.5113 33.6557 64.5481 33.4478C64.565 33.3317 64.5573 33.2133 64.5254 33.1003C64.4935 32.9873 64.4381 32.8824 64.3628 32.7922C64.2876 32.7021 64.1942 32.6289 64.0888 32.5773C63.9833 32.5257 63.8682 32.4969 63.7509 32.4928C62.5494 32.4435 61.3562 32.7128 60.2924 33.2735C59.5728 32.9638 58.8439 32.6918 58.1172 32.448C58.4023 32.3323 58.6942 32.2342 58.9913 32.154C59.1961 32.1029 59.3752 31.9784 59.4944 31.8041C59.6137 31.6299 59.6649 31.4179 59.6384 31.2084C59.6203 31.0927 59.5781 30.9821 59.5145 30.8838C59.451 30.7855 59.3674 30.7016 59.2693 30.6377C59.1712 30.5738 59.0608 30.5312 58.9452 30.5127C58.8295 30.4942 58.7113 30.5002 58.5982 30.5304C57.6241 30.7613 56.708 31.1905 55.9072 31.7912C55.1935 31.6055 54.4965 31.4479 53.8258 31.313C54.1821 31.0602 54.5714 30.8577 54.9829 30.7112C55.1779 30.6461 55.3427 30.5126 55.4467 30.3354C55.5507 30.1581 55.5869 29.9491 55.5486 29.7472C55.5249 29.6316 55.477 29.5224 55.408 29.4267C55.339 29.3311 55.2505 29.2511 55.1484 29.1921C55.0462 29.133 54.9328 29.0964 54.8154 29.0844C54.698 29.0724 54.5795 29.0855 54.4675 29.1226C53.5229 29.4715 52.6576 30.0059 51.9227 30.6943C51.7502 30.8506 51.6274 31.0543 51.5697 31.2799C51.5121 31.5055 51.522 31.743 51.5983 31.963L51.6054 31.9839C51.6745 32.184 51.7958 32.3621 51.9567 32.4997C52.1176 32.6373 52.3123 32.7295 52.5208 32.7667C54.3349 33.0806 56.1221 33.5342 57.8663 34.1236C57.1664 34.8096 56.559 35.5841 56.0596 36.4275C55.9553 36.5951 55.9122 36.7936 55.9377 36.9894C55.9632 37.1851 56.0557 37.366 56.1995 37.5013C56.2913 37.5845 56.4005 37.6463 56.5191 37.6821C56.6378 37.7179 56.7629 37.7268 56.8855 37.7083C57.008 37.6897 57.1249 37.6441 57.2276 37.5748C57.3303 37.5054 57.4163 37.4141 57.4793 37.3073C58.0317 36.3596 58.7462 35.5161 59.5902 34.8153C61.9719 35.0581 64.8362 38.1853 64.8549 38.2064C63.3686 38.4967 61.962 39.103 60.7303 39.9841C60.5539 40.1053 60.4288 40.2879 60.3794 40.4962C60.33 40.7045 60.3599 40.9238 60.4631 41.1113C60.5222 41.2114 60.6015 41.298 60.6959 41.3657C60.7904 41.4334 60.8979 41.4806 61.0117 41.5043C61.1254 41.528 61.2428 41.5278 61.3565 41.5035C61.4701 41.4793 61.5774 41.4316 61.6716 41.3635C62.9186 40.4666 64.3748 39.9045 65.901 39.7309C66.4133 40.7283 66.6964 41.8276 66.7296 42.9484C66.7629 44.0692 66.5455 45.1833 66.0932 46.2093C65.7365 47.0156 65.3178 47.7929 64.8407 48.5343C63.3637 47.1566 61.1017 46.6103 59.3067 46.4018C59.3276 46.3529 59.3522 46.3051 59.3726 46.2557C59.4177 46.1474 59.4394 46.0308 59.4364 45.9136C59.4334 45.7964 59.4058 45.6811 59.3553 45.5753C59.3047 45.4694 59.2325 45.3754 59.1432 45.2994C59.054 45.2233 58.9497 45.1669 58.8372 45.1339C58.6339 45.0799 58.4179 45.1023 58.2299 45.1968C58.042 45.2913 57.8952 45.4514 57.8173 45.6467C57.6582 46.0197 57.4697 46.3795 57.2537 46.7226C56.695 47.5885 56.007 48.3638 55.2136 49.0213C55.1975 49.0351 55.1833 49.0504 55.1683 49.065C53.9925 50.0247 52.6997 50.8313 51.3209 51.4655C50.8045 51.711 50.2794 51.937 49.7457 52.1433C49.7419 52.1446 49.7382 52.145 49.7344 52.1465C48.244 52.7204 46.7005 53.146 45.1266 53.4171C45.1182 53.4186 45.1109 53.4219 45.1026 53.4236C43.9745 53.6173 42.8348 53.7359 41.691 53.7784C30.0948 54.2122 22.1282 51.6127 22.128 51.6127C22.1278 51.6127 21.4391 51.4157 21.1039 51.9884C21.0109 52.1381 20.9711 52.3147 20.991 52.4898C21.0109 52.6649 21.0893 52.8281 21.2135 52.9531C21.9085 53.5314 22.6536 54.0469 23.44 54.4934C29.0172 57.8646 35.9971 59.1027 41.1472 59.5325C41.1452 59.5309 47.4796 59.9461 51.9958 58.762ZM58.4018 48.01C58.4053 48.0047 58.4095 47.9997 58.413 47.9945C59.9085 48.1058 62.5297 48.503 63.8561 49.907C62.7323 51.3154 61.4058 52.5492 59.92 53.5682C59.4387 51.9617 58.4598 50.5494 57.1242 49.5351C57.5942 49.0654 58.0217 48.555 58.4018 48.01ZM52.0361 52.9727C53.3814 52.3475 54.654 51.5765 55.8311 50.6736C57.4557 51.7288 58.1517 53.3388 58.4485 54.4965C56.4915 55.5974 54.3968 56.4333 52.2195 56.9823C52.0992 55.7199 51.7606 54.4879 51.2188 53.3413C51.4931 53.2228 51.7659 53.1011 52.0361 52.9727ZM46.187 54.918C47.3654 54.6792 48.5255 54.3578 49.6589 53.9563C50.1765 55.0242 50.4888 56.1799 50.5792 57.3632C49.1452 57.6524 47.6928 57.8412 46.2325 57.9283L46.1816 57.9314C46.2735 56.9291 46.2753 55.9206 46.187 54.918ZM36.3254 55.4674C38.0019 55.519 39.8115 55.5183 41.7514 55.4455C42.6822 55.411 43.6108 55.3296 44.5335 55.2017C44.6047 56.1298 44.5924 57.0623 44.497 57.9882C43.4381 57.9967 42.3671 57.9561 41.284 57.8665C39.9171 57.7525 38.1966 57.5561 36.302 57.2194C36.3736 56.638 36.3814 56.0505 36.3254 55.4674ZM34.639 55.395C34.7033 55.8935 34.7103 56.3978 34.6598 56.8979C32.1215 56.3769 29.6424 55.6006 27.2602 54.5809C29.7017 54.9968 32.1655 55.2687 34.639 55.395Z" fill="#FFCABA"/>
<path d="M0.223601 6.15497C0.0714186 6.49836 -0.00477618 6.87057 0.000231794 7.24613C0.00523977 7.62169 0.0913323 7.99174 0.252617 8.33094C0.42576 8.68965 0.66167 9.01449 0.949202 9.29013C1.1615 10.2948 1.94074 11.8047 3.80902 12.0441C3.94888 12.0702 5.38234 12.3572 7.34455 13.465C7.61793 14.0178 7.79068 14.6148 7.85473 15.2281C7.87816 15.5264 7.86878 15.8264 7.82675 16.1226C7.7372 16.8553 7.66331 18.7179 8.91014 20.1871C9.89897 21.3523 11.4568 21.9873 13.5485 22.0744C14.2263 22.1112 14.8992 22.2114 15.5583 22.3737C16.0739 23.4378 16.5042 24.5411 16.8452 25.6733L13.7165 28.3716C12.9012 29.073 12.3188 30.006 12.0466 31.0465C11.6314 32.6244 11.1072 34.487 11.1022 34.5056C11.0673 34.6297 11.0616 34.7603 11.0856 34.887C11.1096 35.0137 11.1626 35.1331 11.2404 35.2359C11.3183 35.3387 11.4189 35.422 11.5344 35.4794C11.6499 35.5368 11.7771 35.5667 11.9061 35.5666C12.3156 35.5492 12.7227 35.6375 13.0883 35.8228C13.4538 36.0082 13.7656 36.2845 13.9935 36.6252C12.9247 36.3774 11.8108 36.401 10.7534 36.6937C9.54369 37.0445 8.24596 36.9229 7.12245 36.3536C7.08662 36.3322 7.04922 36.3135 7.01056 36.2977C6.4663 36.0927 5.89508 35.9682 5.31491 35.928C5.59736 35.7585 5.90775 35.6408 6.23152 35.5802C7.16772 35.8362 8.15848 35.8118 9.0809 35.5099C9.22538 35.4538 9.35141 35.3587 9.4449 35.2351C9.5384 35.1116 9.59566 34.9644 9.61028 34.8102C9.83677 32.3837 10.1923 30.2313 10.4507 28.8532C10.6454 27.8142 11.0174 26.8165 11.5506 25.9038L12.5818 24.1338C12.6904 23.9427 12.7192 23.7164 12.662 23.5041C12.6048 23.2917 12.4661 23.1106 12.2761 22.9999C12.0861 22.8892 11.8602 22.8579 11.6472 22.9128C11.4343 22.9678 11.2517 23.1044 11.1389 23.2932L10.1077 25.0632C9.47839 26.1409 9.03912 27.3188 8.80911 28.5455C8.56592 29.843 8.23882 31.8101 8.0069 34.0514C7.50607 34.1088 6.99884 34.067 6.51416 33.9284C6.42401 33.9034 6.33033 33.8935 6.23694 33.8992C5.48904 33.9855 4.77456 34.2574 4.15846 34.6901C3.54235 35.1228 3.04415 35.7026 2.70914 36.3768C2.64056 36.5099 2.60903 36.659 2.61786 36.8085C2.62669 36.9579 2.67554 37.1023 2.75931 37.2264C2.84308 37.3505 2.95867 37.4498 3.09399 37.5139C3.22931 37.5779 3.37938 37.6045 3.52847 37.5907C4.02674 37.5447 5.48504 37.4994 6.33422 37.8263C7.83991 38.5924 9.57913 38.7624 11.2047 38.3025C12.4614 37.9751 13.7953 38.1326 14.9412 38.7436C15.074 38.8256 15.2272 38.8687 15.3833 38.8681C15.5394 38.8675 15.6922 38.8231 15.8244 38.7401C15.9566 38.657 16.0628 38.5385 16.131 38.3981C16.1992 38.2577 16.2268 38.101 16.2104 37.9457C16.0816 36.7218 15.2329 34.5444 12.9721 34.0157C13.1636 33.3235 13.4289 32.3543 13.661 31.4723C13.8479 30.7584 14.2476 30.1183 14.807 29.637L17.3988 27.402C18.6191 30.734 21.443 35.5754 27.8778 38.2826C27.9792 38.3271 28.0885 38.3509 28.1991 38.3527C28.3098 38.3545 28.4198 38.3343 28.5226 38.2932C28.6253 38.2522 28.719 38.1911 28.7979 38.1135C28.8769 38.0359 28.9397 37.9434 28.9826 37.8414C29.0255 37.7393 29.0476 37.6298 29.0478 37.5191C29.048 37.4084 29.0261 37.2988 28.9836 37.1966C28.941 37.0944 28.8785 37.0017 28.7998 36.9239C28.721 36.8461 28.6276 36.7847 28.525 36.7434C21.8138 33.9201 19.4094 28.5626 18.5736 25.6205C18.1552 24.1423 17.596 22.7077 16.9037 21.3362C16.8909 21.3065 16.8764 21.2775 16.8602 21.2494C16.3766 20.2967 15.8233 19.381 15.2047 18.5098C15.1073 18.373 15.0091 18.2384 14.9103 18.1061C14.8449 18.0181 14.7628 17.9438 14.6687 17.8875C14.5746 17.8313 14.4703 17.7941 14.3619 17.7781C14.2534 17.7621 14.1428 17.7676 14.0365 17.7944C13.9301 17.8211 13.8301 17.8686 13.7421 17.934C13.6541 17.9994 13.5798 18.0815 13.5235 18.1756C13.4673 18.2697 13.4301 18.374 13.4141 18.4825C13.3981 18.5909 13.4036 18.7015 13.4304 18.8079C13.4571 18.9142 13.5046 19.0142 13.57 19.1022C13.6621 19.2262 13.754 19.3524 13.8457 19.4807C14.0783 19.8059 14.2981 20.1428 14.5118 20.4848C13.9956 20.4205 13.6393 20.4067 13.6128 20.4056C12.0121 20.3391 10.8573 19.9017 10.1831 19.1064C9.36333 18.1405 9.42136 16.8398 9.4842 16.3253C9.52074 15.8499 9.52423 15.3725 9.49463 14.8966C9.79523 15.1292 10.1001 15.3807 10.4094 15.6512C10.6546 15.9333 11.6443 16.9651 13.0458 17.0179C13.0836 17.0194 13.1214 17.0202 13.1587 17.0202C14.0436 17.0202 14.8665 16.6246 15.6067 15.8431C16.1351 15.3059 16.4635 14.604 16.5375 13.8542C16.5882 13.3067 16.4973 12.7555 16.2735 12.2533C16.0496 11.7512 15.7004 11.315 15.2594 10.9868C16.864 7.82181 15.1341 5.75481 15.0535 5.66192C14.9085 5.4938 14.7028 5.38997 14.4814 5.37315C14.26 5.35633 14.041 5.42788 13.8722 5.57216C13.7891 5.64319 13.7208 5.72995 13.6713 5.82745C13.6218 5.92495 13.5921 6.03127 13.5838 6.14031C13.5755 6.24934 13.5889 6.35894 13.6231 6.4628C13.6573 6.56666 13.7117 6.66274 13.7831 6.74552C13.8317 6.80522 14.8811 8.1366 13.7115 10.3443C12.992 10.2421 12.2591 10.3845 11.6301 10.7484C11.3534 10.9102 11.0926 11.0978 10.8511 11.3085C10.3166 11.7637 9.96716 12.3986 9.8685 13.0937C6.71643 10.8447 4.18936 10.4138 4.06536 10.394C4.05492 10.3921 4.04449 10.3906 4.03405 10.3894C3.75856 10.3608 3.49552 10.2599 3.27152 10.097C3.04752 9.93414 2.87052 9.71498 2.7584 9.46172C4.66052 9.07337 6.6278 9.14386 8.49725 9.66733C8.71012 9.72843 8.93854 9.70245 9.13226 9.59513C9.32598 9.48781 9.46913 9.30793 9.53022 9.09506C9.59132 8.88219 9.56535 8.65377 9.45802 8.46004C9.3507 8.26632 9.17082 8.12317 8.95795 8.06208C6.67631 7.41933 4.26775 7.3739 1.9635 7.93015C1.88281 7.83204 1.81407 7.72469 1.75872 7.61035C1.70053 7.488 1.66982 7.3544 1.66874 7.21892C1.66766 7.08344 1.69623 6.94936 1.75246 6.82609C1.81228 6.68942 1.9009 6.56728 2.01226 6.46799C2.12361 6.3687 2.25508 6.29462 2.39769 6.25079C4.56679 5.58895 6.62933 4.61835 8.52188 3.36884C8.81526 3.17359 9.15122 3.05161 9.50153 3.01314C9.85184 2.97468 10.2063 3.02085 10.535 3.14778C12.1136 3.7569 14.1106 4.14538 15.5082 4.36414C16.0802 4.45226 16.5996 4.74813 16.9671 5.19516C18.8953 7.54585 22.1718 10.3111 22.311 10.4276C22.3279 10.442 22.3454 10.4556 22.3634 10.4693C23.2016 11.1117 23.8462 11.9728 24.2265 12.958C24.3757 13.4028 24.5659 14.4818 24.2035 14.9922C24.1409 15.0793 23.953 15.3442 23.2239 15.3513C23.0934 15.3544 20.0029 15.431 17.9716 15.8823C17.8645 15.9061 17.7632 15.9507 17.6734 16.0137C17.5836 16.0766 17.5071 16.1566 17.4482 16.2491C17.3894 16.3416 17.3493 16.4448 17.3303 16.5528C17.3113 16.6608 17.3137 16.7715 17.3375 16.8786C17.3613 16.9856 17.4059 17.0869 17.4689 17.1767C17.5318 17.2665 17.6118 17.343 17.7043 17.4019C17.7968 17.4608 17.9 17.5009 18.008 17.5199C18.116 17.5389 18.2267 17.5364 18.3338 17.5126C18.6548 17.4412 19.0103 17.3801 19.3775 17.3275C19.3019 17.6552 19.154 17.9619 18.9446 18.2251C18.6505 18.5759 18.4153 18.9721 18.2482 19.3982C18.0841 19.7948 18.0065 20.2218 18.0204 20.6507C18.0323 20.8637 18.1252 21.064 18.28 21.2107C18.4349 21.3573 18.64 21.4391 18.8533 21.4394C18.8688 21.4394 18.8844 21.4389 18.9003 21.4381C19.1214 21.4258 19.3285 21.3262 19.4762 21.1612C19.6239 20.9962 19.6999 20.7793 19.6877 20.5582C19.6897 20.3666 19.7297 20.1772 19.8054 20.0011C19.9079 19.7432 20.0512 19.5036 20.23 19.2914C20.7191 18.6719 21.0221 17.9263 21.1036 17.1413C22.277 17.0463 23.2399 17.0225 23.2508 17.0221C24.5475 17.0093 25.2243 16.4376 25.5635 15.9612C26.5097 14.6309 25.8826 12.647 25.8079 12.4251C25.7041 12.1398 25.5801 11.8623 25.437 11.5947C25.7831 11.5243 26.1209 11.4178 26.4448 11.2768C26.5471 11.2344 26.6399 11.172 26.7178 11.0934C26.7958 11.0148 26.8573 10.9215 26.8989 10.8189C26.9404 10.7163 26.9611 10.6064 26.9598 10.4957C26.9585 10.385 26.9353 10.2757 26.8913 10.1741C26.8474 10.0725 26.7837 9.98059 26.7039 9.90383C26.6241 9.82707 26.5299 9.76693 26.4267 9.72693C26.3234 9.68692 26.2133 9.66784 26.1026 9.6708C25.9919 9.67376 25.883 9.69869 25.782 9.74415C25.3279 9.95299 24.828 10.0427 24.3296 10.0049C24.0379 9.68161 23.7136 9.38935 23.3618 9.13273C23.3178 9.09537 23.2124 9.00561 23.0612 8.87472C23.5581 8.71725 24.0208 8.46755 24.4252 8.13869C24.593 7.99699 24.6982 7.79486 24.7181 7.57611C24.7379 7.35736 24.6708 7.13961 24.5312 6.97003C24.3916 6.80045 24.1908 6.6927 23.9723 6.67014C23.7538 6.64757 23.5352 6.712 23.3639 6.84947C22.8201 7.25501 22.157 7.46846 21.4787 7.4563C21.0886 7.09496 20.6684 6.69604 20.2471 6.28001C20.8647 6.11385 21.4416 5.82254 21.9419 5.42416C22.0252 5.35279 22.0936 5.26572 22.1432 5.16792C22.1928 5.07012 22.2226 4.96352 22.231 4.85418C22.2394 4.74485 22.2262 4.63493 22.1922 4.5307C22.1581 4.42647 22.1038 4.32998 22.0324 4.24672C21.9611 4.16347 21.874 4.09509 21.7762 4.04549C21.6784 3.99588 21.5718 3.96603 21.4625 3.95762C21.3531 3.94922 21.2432 3.96244 21.139 3.99651C21.0348 4.03059 20.9383 4.08486 20.855 4.15623C20.3684 4.57372 19.4702 4.78498 18.8928 4.87223C18.6692 4.62466 18.4557 4.37896 18.2592 4.13953C18.2131 4.08317 18.1626 4.03119 18.1131 3.97775C19.3469 3.36039 20.3987 2.43259 21.1652 1.28556C21.2847 1.09907 21.3252 0.872756 21.2778 0.656408C21.2304 0.44006 21.099 0.251397 20.9125 0.131924C20.726 0.0124511 20.4997 -0.0280459 20.2834 0.0193421C20.067 0.0667301 19.8784 0.198121 19.7589 0.384611C18.7715 1.9262 17.0794 2.65702 16.4511 2.88518C16.2464 2.81557 16.0364 2.76245 15.8232 2.72632C16.3031 2.27776 16.6587 1.71258 16.8554 1.08579C16.9191 0.875349 16.8971 0.648303 16.7944 0.453931C16.6917 0.25956 16.5164 0.113549 16.3067 0.0475898C16.097 -0.0183695 15.8697 0.00104606 15.6742 0.101622C15.4787 0.202198 15.3308 0.375818 15.2625 0.584798C14.9116 1.69971 13.7608 2.12952 13.3485 2.24913C12.597 2.07948 11.8578 1.85953 11.1358 1.59074C10.5574 1.36777 9.93402 1.28679 9.31788 1.35461C8.70174 1.42242 8.11086 1.63705 7.59484 1.98047C5.83722 3.14007 3.92181 4.04059 1.90755 4.6543C1.53538 4.76847 1.19225 4.96166 0.901622 5.22066C0.610992 5.47966 0.379714 5.79836 0.223601 6.15497ZM11.9449 12.5706C12.1066 12.4291 12.2813 12.3033 12.4668 12.1948C12.7241 12.0452 13.0183 11.9708 13.3158 11.9802C13.6133 11.9896 13.9023 12.0823 14.1497 12.2479C14.3941 12.3974 14.5917 12.6126 14.72 12.8688C14.8482 13.1251 14.9019 13.4123 14.8751 13.6976C14.8351 14.0758 14.6655 14.4285 14.3949 14.6958C13.9647 15.15 13.5441 15.3638 13.117 15.3504C12.5175 15.3312 11.9524 14.8584 11.7151 14.6058C11.5844 14.2967 11.2034 13.2129 11.9449 12.5706Z" fill="#FFCABA"/>
<path d="M27.0822 14.7881C27.6249 15.2632 33.9967 19.6696 37.4777 25.5976C37.587 25.7937 37.6851 25.9958 37.7716 26.203L37.7729 26.2061C38.4186 27.7456 39.2718 29.1896 40.3087 30.4979C40.3158 30.5084 40.3244 30.5177 40.3319 30.528C40.3806 30.5891 40.4279 30.6509 40.478 30.7117C39.9073 31.7946 40.2768 33.2506 40.3319 33.4477C40.3624 33.5591 40.4157 33.6629 40.4884 33.7527C40.5611 33.8424 40.6516 33.9161 40.7542 33.9691C40.8569 34.022 40.9694 34.0531 41.0846 34.0604C41.1999 34.0677 41.3154 34.051 41.4239 34.0113C41.6206 33.9343 41.7819 33.7872 41.8767 33.5984C41.9716 33.4095 41.9931 33.1923 41.9374 32.9885C41.837 32.6104 41.7758 31.9335 41.9205 31.5652C42.7371 31.6306 44.5459 31.7637 46.0994 31.7976C46.5301 31.8069 46.9539 31.9076 47.3428 32.0929C47.7318 32.2782 48.077 32.5438 48.3557 32.8724C49.8664 34.6418 51.2602 36.5078 52.5283 38.4584C53.1549 39.4377 54.0253 40.2372 55.0541 40.7787C55.9822 41.2534 56.8439 41.8479 57.6171 42.5471C56.8124 42.6446 55.7751 42.6624 54.8913 42.329C54.1511 42.0395 53.346 41.9566 52.5623 42.0894C51.6334 42.2595 49.7071 42.529 48.1029 42.2094C48.7965 41.9476 49.513 41.7508 50.243 41.6214C50.3637 41.5998 50.4782 41.5519 50.5784 41.4811C50.6785 41.4103 50.7618 41.3183 50.8224 41.2117C50.8829 41.105 50.9193 40.9863 50.9288 40.864C50.9383 40.7418 50.9207 40.6189 50.8773 40.5042C50.8226 40.3597 49.5053 36.939 46.4832 34.6252C46.3807 34.5467 46.2614 34.4931 46.1346 34.4685C46.0078 34.4439 45.8771 34.449 45.7526 34.4835C45.2175 34.61 44.6651 34.6469 44.1179 34.5927C43.9128 34.5692 43.7061 34.6212 43.5364 34.7388C43.3667 34.8564 43.2456 35.0317 43.1955 35.2321C43.1689 35.3468 43.1668 35.4658 43.1895 35.5814C43.2121 35.697 43.2589 35.8065 43.3269 35.9026C43.3949 35.9988 43.4824 36.0795 43.5837 36.1395C43.6851 36.1995 43.798 36.2373 43.915 36.2505C44.5309 36.3146 45.1527 36.2929 45.7626 36.1858C46.5872 36.8819 47.3141 37.686 47.9238 38.5764H37.68C37.346 38.5659 37.0141 38.5497 36.6853 38.5294C36.8204 37.2726 36.8566 36.0071 36.7937 34.7446C36.737 33.8943 36.4615 33.0731 35.994 32.3606C34.9001 30.6756 32.6724 27.5788 30.0192 25.7335C29.8598 25.6184 29.6655 25.5619 29.4691 25.5738C29.2728 25.5857 29.0867 25.6651 28.9423 25.7986C28.8526 25.8843 28.7831 25.9888 28.7388 26.1047C28.6946 26.2205 28.6767 26.3448 28.6865 26.4684C28.6962 26.5921 28.7334 26.712 28.7953 26.8195C28.8573 26.9269 28.9423 27.0192 29.0444 27.0897C31.5631 28.8323 33.7639 31.9921 34.5933 33.2699C34.9039 33.7405 35.0877 34.2834 35.1268 34.8459C35.3356 38.2927 34.3733 42.4156 34.3635 42.457C34.324 42.6246 34.3372 42.8003 34.4012 42.9602C34.4653 43.12 34.5771 43.2562 34.7214 43.3502C34.8448 43.4286 34.986 43.4743 35.1318 43.4832C36.1309 43.5289 37.1276 43.3522 38.0501 42.9659C38.1776 43.3354 38.2682 43.7166 38.3204 44.104C37.8968 43.9443 37.4432 43.8802 36.992 43.9161C36.8755 43.9272 36.7627 43.9627 36.6608 44.0203C36.5589 44.0778 36.4703 44.1561 36.4006 44.2501C35.1913 45.88 32.939 45.4387 32.8469 45.4191C32.6666 45.38 32.4783 45.402 32.3119 45.4817C31.6353 45.8378 31.0359 46.3242 30.548 46.9129C30.5759 46.3753 30.6953 45.8464 30.901 45.3489C31.0067 45.1551 31.0313 44.9273 30.9695 44.7154C30.9077 44.5034 30.7645 44.3246 30.5712 44.2179C29.4803 43.6159 28.2123 43.5679 27.1722 43.6875C27.5274 43.2682 27.9924 42.9561 28.515 42.7862C29.7525 42.4138 30.9242 43.141 30.9317 43.1452C31.0868 43.2458 31.2709 43.2922 31.4551 43.2771C31.6394 43.262 31.8135 43.1863 31.9501 43.0617C32.0942 42.9256 32.1876 42.7446 32.2152 42.5484C32.5296 40.5887 32.5056 38.5897 32.1441 36.6382C31.9218 35.4994 31.3408 34.4617 30.4862 33.6769L28.1065 31.4878C27.0732 30.5421 26.4226 29.2504 26.2777 27.8573C26.2491 27.5907 26.3044 27.3219 26.4359 27.0883C26.5347 26.9289 26.5787 26.7417 26.5611 26.555C26.5436 26.3684 26.4654 26.1926 26.3386 26.0546C26.2496 25.962 26.1404 25.8913 26.0196 25.8477C25.8988 25.8042 25.7696 25.789 25.642 25.8034C25.5144 25.8179 25.3918 25.8614 25.2838 25.9308C25.1757 26.0002 25.0851 26.0936 25.0189 26.2036C24.6913 26.7501 24.5498 27.3882 24.6158 28.022C24.7977 29.8179 25.633 31.4844 26.963 32.7048L29.3556 34.906C29.9467 35.4471 30.3491 36.1632 30.5037 36.9494C30.7661 38.3625 30.8315 39.8052 30.6981 41.2362C29.8426 40.9576 28.9239 40.9382 28.0574 41.1805C26.6361 41.5996 25.4943 42.7444 24.6637 44.583C24.608 44.7017 24.5802 44.8314 24.5824 44.9625C24.5846 45.0935 24.6168 45.2222 24.6764 45.3389C24.7722 45.5194 24.9307 45.6586 25.122 45.7303C25.3134 45.8019 25.5243 45.8011 25.7151 45.728C25.736 45.7199 27.5832 45.0252 29.1102 45.4232C28.892 46.2313 28.6989 47.5923 29.0003 49.5147C29.0224 49.6695 29.0861 49.8154 29.1845 49.937C29.2828 50.0585 29.4123 50.1511 29.5592 50.205C29.7473 50.2695 29.9523 50.2648 30.1373 50.1916C30.3222 50.1184 30.475 49.9817 30.568 49.8059C30.8705 49.2352 31.8278 47.7165 32.8225 47.103C33.6602 47.2089 35.9119 47.3013 37.4552 45.5934C37.629 45.611 37.7954 45.6731 37.9383 45.7736C38.0812 45.8741 38.1959 46.0098 38.2712 46.1674C38.3382 46.3182 38.4484 46.4458 38.5879 46.534C38.7273 46.6222 38.8898 46.6671 39.0548 46.663C39.2197 46.659 39.3798 46.6061 39.5147 46.5111C39.6497 46.4162 39.7535 46.2833 39.813 46.1294C39.8877 45.9361 40.5066 44.1635 39.2494 41.4809C39.2001 41.3759 39.1296 41.2823 39.0422 41.2061C38.9548 41.1299 38.8525 41.0727 38.7418 41.0382C38.6311 41.0037 38.5145 40.9926 38.3992 41.0057C38.284 41.0188 38.1728 41.0557 38.0727 41.1141C37.4908 41.4256 36.864 41.6448 36.2148 41.7637C36.2966 41.3348 36.3908 40.7951 36.4808 40.1869C36.8644 40.2115 37.2514 40.2322 37.642 40.2443C37.6506 40.2443 37.6593 40.2443 37.6681 40.2443H48.7579C47.643 40.529 46.5776 40.9809 45.5979 41.5846C45.485 41.6607 45.3925 41.7633 45.3284 41.8834C45.2643 42.0035 45.2306 42.1375 45.2302 42.2737C45.2299 42.4098 45.2629 42.544 45.3264 42.6645C45.3899 42.7849 45.4819 42.888 45.5944 42.9646C47.6637 44.4104 51.0368 44.0647 52.8646 43.7301C53.3497 43.6523 53.8469 43.7073 54.3033 43.8894C55.0553 44.1568 55.8491 44.2873 56.6471 44.2747C57.5914 44.2697 58.5308 44.1371 59.4397 43.8806C59.618 43.8258 59.7729 43.7129 59.8798 43.56C59.9867 43.407 60.0394 43.2228 60.0296 43.0364C60.0196 42.8753 59.9639 42.7202 59.8691 42.5895C58.7932 41.0573 57.0808 39.9543 55.8319 39.2982C55.0599 38.8916 54.4068 38.2914 53.9365 37.5565C52.628 35.5428 51.1895 33.6167 49.6301 31.7905C49.4329 31.559 49.2138 31.3471 48.9759 31.1578C49.7113 30.7272 50.3071 30.0937 50.692 29.3333C50.7815 29.1529 50.8044 28.9466 50.7569 28.7509C50.7093 28.5552 50.5942 28.3825 50.4319 28.2633C50.3316 28.1926 50.2169 28.145 50.0961 28.1237C49.9753 28.1023 49.8513 28.1079 49.7328 28.14C49.6144 28.1721 49.5045 28.2298 49.4109 28.3092C49.3174 28.3886 49.2425 28.4876 49.1915 28.5992C48.7381 29.5905 47.4967 30.0813 47.0314 30.2339C46.7363 30.1693 46.4358 30.1333 46.1338 30.1261C45.7998 30.1188 45.4529 30.1065 45.1047 30.0913C45.6805 29.5935 46.1404 28.9758 46.4521 28.2815C46.537 28.1051 46.5582 27.9049 46.5123 27.7147C46.4664 27.5244 46.3561 27.3559 46.2002 27.2377C46.1006 27.1643 45.986 27.1139 45.8646 27.0902C45.7432 27.0665 45.6181 27.0701 45.4983 27.1006C45.3784 27.1312 45.2668 27.188 45.1716 27.2669C45.0764 27.3459 44.9999 27.445 44.9477 27.5571C43.9328 29.7318 42.1384 29.4811 41.5034 29.3106C41.1032 28.792 40.7335 28.2506 40.396 27.6892C40.6843 27.674 40.969 27.6185 41.2418 27.5243C41.4341 27.4617 41.598 27.333 41.7044 27.161C41.8108 26.9891 41.8529 26.785 41.8232 26.585C41.8028 26.4643 41.7561 26.3495 41.6865 26.2489C41.6168 26.1482 41.5259 26.0641 41.4201 26.0025C41.3143 25.9409 41.1963 25.9033 41.0743 25.8924C40.9524 25.8815 40.8296 25.8975 40.7145 25.9393C40.505 26.0104 40.283 26.0373 40.0625 26.0183C39.8421 25.9993 39.628 25.9348 39.4337 25.8289C39.2833 25.4268 39.1065 25.035 38.9045 24.6562C39.4171 24.6258 39.9175 24.4879 40.3732 24.2514C40.5558 24.1625 40.701 24.0118 40.7832 23.8261C40.8654 23.6404 40.8792 23.4316 40.8223 23.2367C40.785 23.1197 40.7224 23.0123 40.6389 22.9223C40.5554 22.8322 40.4531 22.7617 40.3392 22.7158C40.2254 22.6698 40.1027 22.6495 39.9801 22.6563C39.8575 22.6632 39.7379 22.697 39.6299 22.7553C39.3492 22.8963 39.0423 22.9776 38.7286 22.9941C38.4149 23.0105 38.1012 22.9618 37.8073 22.8509C37.5514 22.4856 37.28 22.125 36.9932 21.7692C37.6325 21.6055 38.2347 21.3215 38.7676 20.9323C39.2152 20.599 39.7693 20.4407 40.3254 20.4873C40.5433 20.5271 40.768 20.4787 40.9502 20.3528C41.1324 20.2269 41.2571 20.0338 41.2969 19.816C41.3368 19.5981 41.2884 19.3734 41.1625 19.1912C41.0366 19.009 40.8435 18.8843 40.6256 18.8445C39.6241 18.7127 38.6105 18.9738 37.7973 19.5732C36.6935 20.3614 35.8232 20.2441 35.6241 20.2028C35.1888 19.7398 34.7375 19.2866 34.277 18.8438C34.5852 18.7483 34.8802 18.6145 35.1552 18.4458C35.3298 18.3425 35.4621 18.1807 35.5288 17.9892C35.5954 17.7976 35.5919 17.5886 35.5191 17.3993C35.4726 17.286 35.4017 17.1843 35.3115 17.1014C35.2213 17.0185 35.1139 16.9565 34.9971 16.9197C34.8802 16.883 34.7567 16.8724 34.6353 16.8887C34.5139 16.905 34.3976 16.9479 34.2946 17.0142C33.8123 17.2828 33.267 17.4175 32.7152 17.4043C32.3734 17.1007 32.0325 16.8029 31.6923 16.5109C32.17 16.3938 32.6247 16.1974 33.0375 15.93C33.2063 15.8205 33.3311 15.655 33.3898 15.4626C33.4486 15.2701 33.4375 15.0631 33.3585 14.8781C33.3084 14.7663 33.2343 14.667 33.1414 14.5871C33.0486 14.5072 32.9393 14.4487 32.8214 14.4157C32.7034 14.3828 32.5796 14.3762 32.4588 14.3964C32.338 14.4167 32.2231 14.4632 32.1224 14.5328C31.5258 14.9443 30.5586 15.0488 29.9802 15.0595C29.7276 14.847 29.4823 14.6403 29.2423 14.4372C30.5421 13.8717 31.7506 13.116 32.8281 12.1949C32.9796 12.068 33.0824 11.8926 33.1189 11.6984C33.1555 11.5043 33.1235 11.3035 33.0285 11.1303C32.9671 11.0226 32.8825 10.9299 32.7808 10.8591C32.6791 10.7882 32.563 10.7408 32.4407 10.7204C32.3184 10.7 32.1932 10.707 32.074 10.7411C31.9548 10.7751 31.8447 10.8352 31.7516 10.9171C30.4703 12.0018 28.9921 12.8295 27.3978 13.3551C27.2641 13.4096 27.1457 13.4957 27.0527 13.6061C26.9597 13.7165 26.8949 13.8478 26.8638 13.9887C26.8328 14.1297 26.8364 14.2761 26.8745 14.4153C26.9125 14.5546 26.9838 14.6825 27.0822 14.7881Z" fill="#FFCABA"/>
<path d="M9.34017 4.54192L8.79116 4.65298C8.68258 4.67353 8.57915 4.71543 8.48688 4.77626C8.39461 4.83708 8.31533 4.91562 8.25364 5.00731C8.19195 5.09901 8.14908 5.20204 8.12751 5.31043C8.10594 5.41882 8.1061 5.53041 8.12798 5.63874C8.14987 5.74706 8.19304 5.84997 8.25499 5.94148C8.31695 6.033 8.39645 6.11131 8.4889 6.17187C8.58134 6.23242 8.68489 6.27403 8.79354 6.29426C8.90219 6.3145 9.01377 6.31297 9.12182 6.28975L9.67082 6.17891C9.8879 6.13506 10.0787 6.00678 10.2012 5.82228C10.3236 5.63777 10.3678 5.41217 10.324 5.19509C10.2801 4.97801 10.1519 4.78724 9.96735 4.66475C9.78285 4.54226 9.55724 4.49808 9.34017 4.54192Z" fill="#FFCABA"/>
</svg>
